<svg xmlns="http://www.w3.org/2000/svg" width="892" height="209" viewBox="0 0 892 209">
    <defs>
        <filter id="ltedwzshua">
            <feColorMatrix in="SourceGraphic" values="0 0 0 0 0.949020 0 0 0 0 0.956863 0 0 0 0 0.972549 0 0 0 1.000000 0"/>
        </filter>
    </defs>
    <g fill="none" fill-rule="evenodd">
        <g filter="url(#ltedwzshua)" transform="translate(-500 -165)">
            <g>
                <g fill="#E7E9EF">
                    <path d="M869.745 100.884L695.411 100.884 651.343 45.009 508.859 45.009 407.108 147.008 224.596 147.008 188.632 110.951 70.361 110.951 14.141 54.595 0.302 54.595 0.302 56.03 13.543 56.03 69.763 112.389 188.039 112.389 224.007 148.446 407.705 148.446 509.452 46.444 650.651 46.444 694.722 102.319 869.151 102.319 885.821 119.035 886.838 118.021z" transform="translate(500 165) translate(0 .108)"/>
                    <path d="M883.935 120.7c1.258 1.265 3.304 1.265 4.567 0 1.26-1.26 1.26-3.314 0-4.578-1.263-1.266-3.31-1.266-4.567 0-1.263 1.264-1.263 3.317 0 4.579M688.224 115.76L644.156 59.891 515.005 59.891 413.261 161.888 218.449 161.888 182.487 125.832 64.212 125.832 7.996 69.474.302 69.474.302 70.91 7.396 70.91 63.616 127.269 181.89 127.269 217.86 163.322 413.853 163.322 515.602 61.324 643.463 61.324 687.532 117.201 767.18 117.201 767.18 115.76z" transform="translate(500 165) translate(0 .108)"/>
                    <path d="M767.016 119.719c1.785 0 3.235-1.452 3.235-3.236 0-1.793-1.45-3.243-3.235-3.243-1.784 0-3.227 1.45-3.227 3.243 0 1.784 1.443 3.236 3.227 3.236" transform="translate(500 165) translate(0 .108)"/>
                    <path d="M681.04 130.645L636.967 74.772 521.152 74.772 419.414 176.77 212.302 176.77 176.332 140.714 58.062 140.714 1.843 84.354 0.302 84.354 0.302 85.792 1.249 85.792 57.469 142.15 175.743 142.15 211.707 178.206 420.003 178.206 521.752 76.206 636.273 76.206 680.344 132.081 834.578 132.081 834.578 130.645z" transform="translate(500 165) translate(0 .108)"/>
                    <path d="M834.419 134.6c1.78 0 3.23-1.45 3.23-3.237 0-1.791-1.45-3.242-3.23-3.242-1.783 0-3.233 1.45-3.233 3.242 0 1.787 1.45 3.237 3.233 3.237M673.853 145.524L629.777 89.652 527.305 89.652 425.561 191.651 206.154 191.651 170.187 155.597 51.91 155.597.303 103.859.303 105.884 51.318 157.032 169.594 157.032 205.561 193.086 426.153 193.086 527.899 91.087 629.089 91.087 673.158 146.963 796.564 146.963 796.564 145.524z" transform="translate(500 165) translate(0 .108)"/>
                    <path d="M796.396 149.48c1.787 0 3.234-1.447 3.234-3.238 0-1.785-1.447-3.239-3.234-3.239-1.785 0-3.229 1.454-3.229 3.239 0 1.791 1.444 3.238 3.23 3.238" transform="translate(500 165) translate(0 .108)"/>
                    <path d="M869.745 160.409L666.663 160.409 622.598 104.534 533.452 104.534 431.706 206.531 200.005 206.531 164.041 170.478 45.763 170.478 0.302 124.905 0.302 126.933 45.171 171.912 163.447 171.912 199.411 207.971 432.3 207.971 534.044 105.972 621.905 105.972 665.974 161.842 869.151 161.842 888.11 180.847 889.121 179.83z" transform="translate(500 165) translate(0 .108)"/>
                    <path d="M886.215 182.518c1.262 1.265 3.305 1.265 4.568 0 1.261-1.266 1.261-3.32 0-4.587-1.263-1.261-3.306-1.261-4.568 0-1.263 1.266-1.263 3.321 0 4.587M702.595 86.001L658.533 30.129 502.713 30.129 400.961 132.127 230.746 132.127 194.779 96.071 76.509 96.071 20.288 39.712.302 39.712.302 41.148 19.692 41.148 75.912 97.507 194.187 97.507 230.157 133.563 401.555 133.563 503.305 31.563 657.837 31.563 701.902 87.438 813.844 87.438 813.844 86.001z" transform="translate(500 165) translate(0 .108)"/>
                    <path d="M813.679 89.957c1.784 0 3.23-1.447 3.23-3.235 0-1.79-1.446-3.244-3.23-3.244s-3.232 1.454-3.232 3.244c0 1.788 1.448 3.235 3.232 3.235M709.785 71.12L665.716 15.248 496.561 15.248 394.816 117.253 236.895 117.253 200.928 81.192 82.654 81.192 26.434 24.834.303 24.834.303 26.269 25.842 26.269 82.062 82.627 200.336 82.627 236.306 118.685 395.408 118.685 497.152 16.689 665.021 16.689 709.089 72.558 866.377 72.558 866.377 71.12z" transform="translate(500 165) translate(0 .108)"/>
                    <path d="M866.217 75.079c1.784 0 3.23-1.45 3.23-3.239 0-1.788-1.446-3.236-3.23-3.236-1.785 0-3.232 1.448-3.232 3.236 0 1.788 1.447 3.239 3.232 3.239M785.094 29.797L758.719 56.236 716.972 56.236 672.899.367 490.413.367 388.666 102.364 243.045 102.364 207.078 66.305 88.807 66.305 32.587 9.945.302 9.945.302 11.386 31.995 11.386 88.215 67.745 206.485 67.745 242.102 103.802 244.478 103.802 389.258 103.802 491.002 1.802 672.208 1.802 716.278 57.676 759.314 57.676 786.107 30.813z" transform="translate(500 165) translate(0 .108)"/>
                    <path d="M783.201 28.128c1.262-1.266 3.308-1.266 4.568 0 1.261 1.264 1.261 3.32 0 4.585-1.26 1.261-3.306 1.261-4.568 0-1.26-1.264-1.26-3.32 0-4.585" transform="translate(500 165) translate(0 .108)"/>
                </g>
            </g>
        </g>
    </g>
</svg>
