<svg xmlns="http://www.w3.org/2000/svg" width="1380" height="321" viewBox="0 0 1380 321">
    <defs>
        <filter id="tc62l3li9a">
            <feColorMatrix in="SourceGraphic" values="0 0 0 0 0.529412 0 0 0 0 0.572549 0 0 0 0 0.670588 0 0 0 1.000000 0"/>
        </filter>
    </defs>
    <g fill="none" fill-rule="evenodd" filter="url(#tc62l3li9a)" opacity=".1" transform="translate(873)">
        <g fill="#FFF">
            <path d="M1345.569 155.692L1075.861 155.692 1007.683 69.461 787.248 69.461 629.831 226.873 347.47 226.873 291.83 171.227 108.854 171.227 21.878 84.255 0.467 84.255 0.467 86.469 20.952 86.469 107.929 173.446 290.912 173.446 346.558 229.092 630.754 229.092 788.166 71.676 1006.612 71.676 1074.794 157.906 1344.651 157.906 1370.44 183.703 1372.014 182.139z" transform="translate(-873)"/>
            <path d="M1367.522 186.274c1.947 1.951 5.113 1.951 7.067 0 1.949-1.947 1.949-5.115 0-7.067-1.954-1.954-5.12-1.954-7.067 0-1.954 1.952-1.954 5.12 0 7.067M1064.741 178.649L996.564 92.428 796.757 92.428 639.35 249.837 337.959 249.837 282.323 194.193 99.342 194.193 12.37 107.217.468 107.217.468 109.433 11.442 109.433 98.419 196.41 281.4 196.41 337.048 252.049 640.266 252.049 797.68 94.64 995.492 94.64 1063.67 180.873 1186.893 180.873 1186.893 178.649z" transform="translate(-873)"/>
            <path d="M1186.64 184.758c2.761 0 5.005-2.24 5.005-4.993 0-2.767-2.244-5.005-5.006-5.005-2.76 0-4.993 2.238-4.993 5.005 0 2.752 2.234 4.993 4.993 4.993" transform="translate(-873)"/>
            <path d="M1053.627 201.62L985.442 115.394 806.266 115.394 648.869 272.803 328.45 272.803 272.801 217.159 89.828 217.159 2.851 130.18 0.467 130.18 0.467 132.4 1.933 132.4 88.909 219.376 271.89 219.376 327.529 275.02 649.78 275.02 807.194 117.606 984.369 117.606 1052.551 203.837 1291.164 203.837 1291.164 201.62z" transform="translate(-873)"/>
            <path d="M1290.917 207.724c2.755 0 4.998-2.238 4.998-4.995 0-2.765-2.243-5.003-4.998-5.003-2.758 0-5 2.238-5 5.003 0 2.757 2.242 4.995 5 4.995M1042.508 224.583L974.319 138.358 815.786 138.358 658.379 295.769 318.938 295.769 263.294 240.128 80.309 240.128.468 160.283.468 163.408 79.393 242.342 262.376 242.342 318.02 297.984 659.295 297.984 816.704 140.572 973.255 140.572 1041.432 226.803 1232.353 226.803 1232.353 224.583z" transform="translate(-873)"/>
            <path d="M1232.093 230.688c2.764 0 5.003-2.233 5.003-4.998 0-2.755-2.239-4.998-5.003-4.998-2.762 0-4.996 2.243-4.996 4.998 0 2.765 2.234 4.998 4.996 4.998" transform="translate(-873)"/>
            <path d="M1345.569 247.554L1031.385 247.554 963.212 161.324 825.295 161.324 667.886 318.733 309.424 318.733 253.785 263.094 70.799 263.094 0.467 192.762 0.467 195.892 69.883 265.306 252.867 265.306 308.506 320.955 668.805 320.955 826.211 163.543 962.141 163.543 1030.318 249.767 1344.651 249.767 1373.982 279.095 1375.546 277.526z" transform="translate(-873)"/>
            <path d="M1371.05 281.675c1.952 1.95 5.114 1.95 7.067 0 1.952-1.954 1.952-5.125 0-7.08-1.953-1.946-5.115-1.946-7.066 0-1.954 1.955-1.954 5.126 0 7.08M1086.974 132.723L1018.806 46.498 777.74 46.498 620.321 203.907 356.983 203.907 301.339 148.263 118.365 148.263 31.387 61.286.468 61.286.468 63.503 30.466 63.503 117.442 150.48 300.423 150.48 356.072 206.124 621.239 206.124 778.656 48.71 1017.73 48.71 1085.903 134.94 1259.086 134.94 1259.086 132.723z" transform="translate(-873)"/>
            <path d="M1258.83 138.828c2.76 0 4.999-2.233 4.999-4.993 0-2.762-2.239-5.005-4.998-5.005-2.76 0-5 2.243-5 5.005 0 2.76 2.24 4.993 5 4.993M1098.097 109.757L1029.92 23.532 768.223 23.532 610.813 180.953 366.497 180.953 310.853 125.302 127.872 125.302 40.896 38.325.468 38.325.468 40.539 39.98 40.539 126.956 127.516 309.937 127.516 365.586 183.162 611.729 183.162 769.136 25.756 1028.844 25.756 1097.021 111.976 1340.36 111.976 1340.36 109.757z" transform="translate(-873)"/>
            <path d="M1340.111 115.867c2.76 0 4.999-2.239 4.999-4.999s-2.239-4.993-4.999-4.993c-2.762 0-5 2.234-5 4.993 0 2.76 2.238 4.999 5 4.999M1214.608 45.985L1173.803 86.787 1109.217 86.787 1041.033.567 758.711.567 601.3 157.976 376.012 157.976 320.368 102.327 137.392 102.327 50.415 15.348.468 15.348.468 17.572 49.5 17.572 136.476 104.549 319.45 104.549 374.552 160.195 378.229 160.195 602.216 160.195 759.623 2.781 1039.964 2.781 1108.143 89.009 1174.723 89.009 1216.174 47.553z" transform="translate(-873)"/>
            <path d="M1211.68 43.409c1.95-1.954 5.117-1.954 7.066 0 1.951 1.951 1.951 5.125 0 7.076-1.95 1.947-5.115 1.947-7.067 0-1.949-1.951-1.949-5.125 0-7.076" transform="translate(-873)"/>
        </g>
    </g>
</svg>
