<svg xmlns="http://www.w3.org/2000/svg" xmlns:xlink="http://www.w3.org/1999/xlink" width="90" height="91" viewBox="0 0 90 91">
    <defs>
        <path id="xyyvdnlnoa" d="M11.449.584C5.552.584.771 5.364.771 11.26c0 5.898 4.781 10.677 10.678 10.677h50.674V.584H11.449z"/>
        <path id="dlyp43icrc" d="M.123.584v21.353h14.405c5.896 0 10.676-4.779 10.676-10.677 0-5.896-4.78-10.676-10.676-10.676H.123z"/>
        <path id="b98yf6b0de" d="M38.362.939c-2.524 3.048-6.249 5.064-10.448 5.324l-.005.001-.119.006-.015.001-.244.011-.03.001-.096.002-.027.001c-.039.002-.077.003-.116.003h-.031l-.087.002h-.312l-.088-.002h-.03l-.117-.003-.026-.001-.097-.002-.029-.001-.244-.011-.016-.001-.118-.006-.006-.001c-4.2-.26-7.923-2.276-10.447-5.324H5.037C2.403.939.268 3.074.268 5.708v24.38c0 2.634 2.136 4.769 4.769 4.769h43.901c2.634 0 4.769-2.135 4.769-4.77V5.708c0-2.634-2.135-4.769-4.769-4.769H38.362z"/>
        <path id="2i4sfhd05g" d="M.61 1.474c.006-.002.009-.002.014-.002-.005 0-.008 0-.014.002z"/>
        <path id="g11q08wnhi" d="M1.389 1.493l.026-.002-.026.002z"/>
        <path id="bxyp1i6nmk" d="M.988.508C.915.508.843.506.772.503c.071.003.143.005.216.005.072 0 .144-.002.215-.005-.071.003-.143.005-.215.005z"/>
        <path id="8hphu1dkjm" d="M1.366 1.474c-.005-.002-.009-.002-.014-.002.005 0 .009 0 .014.002z"/>
        <path id="adlj2qrvno" d="M.753.503L.702.5l.051.003z"/>
        <path id="6c8ju91g1q" d="M.544 1.48l.01-.001-.01.001z"/>
        <path id="dnq1fv9u6s" d="M1.305.499l.041-.003-.041.003z"/>
        <path id="xj1ktwknqu" d="M.587 1.493l-.026-.001.026.001z"/>
        <path id="fbx32tcxmw" d="M.671.499L.63.496l.041.003z"/>
        <path id="s5kn2ou9gy" d="M1.222.503L1.274.5l-.052.003z"/>
        <path id="aqftda61jA" d="M.714 1.289c-.039 0-.078-.001-.115-.003.037.002.076.003.115.003z"/>
        <path id="ba87761qfC" d="M1.262 1.289c.04 0 .078-.001.117-.003-.039.002-.077.003-.117.003z"/>
        <path id="9wwzf2ss4E" d="M1.405 1.285l.096-.002-.096.002z"/>
        <path id="qri7po39dG" d="M.832 1.291l-.088-.002.088.002z"/>
        <path id="4wk8j7j7sI" d="M1.144 1.291l.087-.002-.087.002z"/>
        <path id="sw0qhbhhfK" d="M.531 1.282l.244-.011-.244.011z"/>
        <path id="d6vk4fo7pM" d="M.571 1.285l-.097-.002.097.002z"/>
        <path id="kk7ywuj92O" d="M1.445 1.282l-.244-.011.244.011z"/>
        <path id="s2mu8vny4Q" d="M.228 15.531c0 3.576 1.272 6.854 3.386 9.408 2.313 2.794 5.635 4.721 9.408 5.222-2.095-.279-4.05-.998-5.772-2.06v-3.528c0-2.842 1.533-5.325 3.817-6.67-1.031-1.015-1.672-2.427-1.672-3.989 0-3.089 2.504-5.592 5.592-5.592 3.089 0 5.594 2.503 5.594 5.592 0 1.562-.641 2.974-1.672 3.989 2.283 1.345 3.816 3.828 3.816 6.67v3.528c-1.517.935-3.214 1.605-5.029 1.942 3.465-.643 6.504-2.495 8.666-5.104 2.114-2.554 3.385-5.832 3.385-9.408C29.747 7.38 23.14.772 14.988.772 6.836.772.228 7.38.228 15.531zm15.887 14.718l.187-.015-.187.015zm-2.256-.001l-.183-.014.183.014z"/>
        <path id="xqmucnpz3S" d="M2.395 5.914c0 1.563.641 2.974 1.672 3.989C1.783 11.248.25 13.731.25 16.573v3.528c2.003 1.236 4.325 2.008 6.812 2.162l.006.001c.039.001.079.003.118.007h.015l.245.011.029.001.096.002.028.001c.037.002.076.003.116.003l.03.001.088.001.039.001H8.104l.041-.001.087-.001.031-.001c.039 0 .077-.001.116-.003l.026-.001.096-.002.03-.001.244-.011h.016c.04-.004.078-.006.118-.007l.005-.001c2.488-.154 4.809-.926 6.813-2.162v-3.528c0-2.842-1.535-5.325-3.818-6.67 1.031-1.015 1.672-2.427 1.672-3.989 0-3.089-2.504-5.591-5.593-5.591S2.395 2.825 2.395 5.914zm5.627 5.594l.181-.005c-.06.003-.12.004-.181.005h-.034c-.073 0-.145-.003-.216-.005.071.002.143.005.216.005h.034z"/>
        <path id="hlnv8wgkvU" d="M12.449.812C5.584.812 0 6.396 0 13.26c0 6.864 5.584 12.449 12.449 12.449h65.079c6.863 0 12.448-5.585 12.448-12.449S84.391.812 77.528.812H12.449zm52.446 3.543h12.633c4.91 0 8.904 3.995 8.904 8.905 0 4.911-3.994 8.905-8.904 8.905H64.895V4.355zM3.543 13.26c0-4.91 3.994-8.905 8.906-8.905h48.902v17.81H12.449c-4.912 0-8.906-3.994-8.906-8.905z"/>
        <path id="phmrst1hsW" d="M4.927.701c-.749.628-.848 1.746-.22 2.495l1.085 1.293H2.258c-.978 0-1.771.793-1.771 1.771 0 .979.793 1.772 1.771 1.772h3.534L4.707 9.325c-.628.75-.529 1.868.22 2.496.331.278.735.414 1.138.414.505 0 1.008-.216 1.358-.633l3.525-4.204c.552-.658.552-1.618 0-2.277L7.423.919C7.073.502 6.57.286 6.065.286c-.402 0-.806.136-1.138.415z"/>
        <path id="v01vlyq5zY" d="M5.684.707L4.637 1.755 3.588.707c-.692-.692-1.812-.692-2.505 0-.692.692-.692 1.813 0 2.505L2.131 4.26 1.083 5.308c-.692.692-.692 1.815 0 2.507.346.345.799.518 1.252.518.454 0 .907-.173 1.252-.518l1.05-1.049 1.046 1.049c.347.345.8.518 1.254.518.454 0 .906-.173 1.253-.518.691-.692.691-1.815 0-2.507L7.141 4.26 8.19 3.212c.692-.692.692-1.813 0-2.505C7.843.361 7.391.188 6.937.188c-.453 0-.906.173-1.253.519z"/>
        <path id="wk9ugj34waa" d="M5.497.707L4.449 1.755 3.401.707C2.709.015 1.588.015.895.707c-.691.692-.691 1.813 0 2.505L1.943 4.26.895 5.308C.204 6 .204 7.123.895 7.815c.347.345.799.518 1.253.518.453 0 .907-.173 1.253-.518l1.048-1.049 1.048 1.049c.346.345.8.518 1.253.518.453 0 .907-.173 1.252-.518.692-.692.692-1.815 0-2.507L6.954 4.26l1.048-1.048c.692-.692.692-1.813 0-2.505C7.657.361 7.203.188 6.75.188c-.453 0-.907.173-1.253.519z"/>
        <path id="0h587adb2ac" d="M5.31.707L4.261 1.755 3.213.707C2.522.015 1.4.015.708.707c-.693.692-.693 1.813 0 2.505L1.757 4.26.708 5.308C.015 6 .015 7.123.708 7.815c.346.345.8.518 1.252.518.454 0 .907-.173 1.253-.518l1.048-1.049L5.31 7.815c.346.345.799.518 1.253.518.453 0 .906-.173 1.252-.518.693-.692.693-1.815 0-2.507L6.766 4.26l1.049-1.048c.693-.692.693-1.813 0-2.505C7.469.361 7.016.188 6.563.188c-.454 0-.907.173-1.253.519z"/>
        <path id="wblknk9zdae" d="M5.122.707L4.074 1.755 3.026.707C2.334.015 1.213.015.521.707s-.692 1.813 0 2.505L1.569 4.26.521 5.308c-.692.692-.692 1.815 0 2.507.345.345.799.517 1.253.517.453 0 .906-.172 1.252-.517l1.048-1.049 1.048 1.049c.347.345.8.517 1.253.517.454 0 .906-.172 1.253-.517.692-.692.692-1.815 0-2.507L6.58 4.26l1.049-1.048c.691-.692.691-1.813 0-2.505-.347-.346-.8-.519-1.254-.519-.453 0-.907.173-1.253.519z"/>
        <path id="rhbk13lp7ag" d="M12.456 16.531c0 2.671.652 5.293 1.87 7.636H7.037c-.354 0-.713.03-1.066.088-.084.013-.169.028-.25.046-.101.019-.395.094-.457.112-.134.036-.272.079-.421.132-.005.002-.834.365-.877.388-.008.003-.014.007-.02.011-.068.037-.381.221-.454.268-.005.004-.42.295-.496.354-.071.056-.233.192-.241.2-.075.065-.15.134-.224.204l-.006.006-.005.005C1.235 27.206.498 28.928.498 30.707v24.38c0 1.252.354 2.469 1.025 3.519.102.16.226.298.365.414.075.164.176.319.303.46 1.238 1.365 3.004 2.149 4.846 2.149h43.93c1.832-.009 3.587-.79 4.818-2.149v-.001h.001c1.091-1.205 1.692-2.764 1.692-4.392v-24.38c0-1.779-.736-3.5-2.021-4.725l-.01-.009-.002-.003-.022-.021h-.001c-.066-.063-.134-.124-.201-.183l-.738-.554c-.072-.046-.558-.324-.602-.345-.162-.082-.742-.32-.748-.322-.148-.052-1.044-.277-1.129-.29-.353-.058-.711-.088-1.066-.088H43.65c1.218-2.343 1.869-4.965 1.869-7.636C45.519 7.416 38.104 0 28.988 0S12.456 7.416 12.456 16.531zm6.523 8.279C17.058 22.489 16 19.549 16 16.531c0-7.162 5.826-12.987 12.988-12.987s12.988 5.825 12.988 12.987c0 3.018-1.057 5.958-2.978 8.278l-.004.004c-.162.195-.327.385-.498.567-.055-2.617-1.201-5.09-3.104-6.832.611-1.073.96-2.314.96-3.634 0-4.061-3.303-7.364-7.364-7.364s-7.364 3.303-7.364 7.364c0 1.32.349 2.561.96 3.634-1.904 1.742-3.05 4.215-3.103 6.832-.172-.184-.34-.375-.502-.57zm6.187-9.896c0-2.107 1.714-3.82 3.821-3.82s3.821 1.713 3.821 3.82c.001 2.04-1.606 3.713-3.621 3.816h-.004l-.042.002h-.007c-.013.002-.028.002-.042.002l-.006.001-.043.001H28.932l-.043-.001-.005-.001c-.014 0-.029 0-.042-.002h-.008l-.043-.002h-.002c-2.016-.103-3.623-1.776-3.623-3.816zm3.908 7.364h.02l.079-.002h.007l.09-.003h.007c1.321-.051 2.584-.449 3.679-1.152 1.253 1.122 1.998 2.743 1.998 4.452v2.497c-1.819.944-3.859 1.449-5.966 1.449-2.108 0-4.146-.505-5.966-1.449v-2.497c0-1.709.744-3.33 1.998-4.452 1.095.703 2.358 1.101 3.679 1.152h.008c.029.001.059.003.09.003h.007l.078.002h.02l.086.001.086-.001zm12.093 5.432h9.771l.08.002L38.795 38.49l-.027.023-7.471 6.587c-1.317 1.16-3.301 1.16-4.618 0l-7.471-6.587c-.008-.008-.016-.015-.025-.021L6.958 27.711l.079-.001h9.772c3.132 3.412 7.523 5.353 12.179 5.353 4.656 0 9.047-1.941 12.179-5.353zm1.203 12.353l11.468-10.115c.064.245.097.499.097.759v24.037L42.37 40.063zM4.041 30.707c0-.26.033-.514.097-.759l11.469 10.115-1.85 2.348c-.606.769-.474 1.883.295 2.488.769.605 1.883.473 2.488-.296l1.729-2.194 6.066 5.349c1.327 1.17 2.989 1.754 4.653 1.754 1.663 0 3.327-.584 4.653-1.754l6.066-5.349 12.218 15.509c-.315.11-.648.167-.987.167H7.037c-.338 0-.671-.058-.986-.167l2.306-2.926c.605-.768.472-1.883-.296-2.488s-1.882-.473-2.488.296l-1.532 1.944V30.707z"/>
        <path id="zps5xzsyiai" d="M.303 2.68v.004c0 .978.792 1.769 1.771 1.769.978 0 1.771-.795 1.771-1.773 0-.979-.793-1.772-1.771-1.772-.979 0-1.771.793-1.771 1.772z"/>
    </defs>
    <g fill="none" fill-rule="evenodd">
        <g transform="translate(1 67)">
            <mask id="14ofb3zs9b" fill="#fff">
                <use xlink:href="#xyyvdnlnoa"/>
            </mask>
            <path fill="#EDF0F2" d="M-4.228 26.937L67.124 26.937 67.124 -4.416 -4.228 -4.416z" mask="url(#14ofb3zs9b)"/>
        </g>
        <g transform="translate(63 67)">
            <mask id="h9sg3ov2yd" fill="#fff">
                <use xlink:href="#dlyp43icrc"/>
            </mask>
            <path fill="#E6001A" d="M-4.876 26.937L30.205 26.937 30.205 -4.416 -4.876 -4.416z" mask="url(#h9sg3ov2yd)"/>
        </g>
        <g transform="translate(18 25)">
            <mask id="5kvqn7ubhf" fill="#fff">
                <use xlink:href="#b98yf6b0de"/>
            </mask>
            <path fill="#EDF0F2" d="M-4.732 39.856L58.707 39.856 58.707 -4.061 -4.732 -4.061z" mask="url(#5kvqn7ubhf)"/>
        </g>
        <g transform="translate(45 19)">
            <mask id="z109eu7l2h" fill="#fff">
                <use xlink:href="#2i4sfhd05g"/>
            </mask>
            <path fill="#FCE6E8" d="M-4.39 6.473L5.624 6.473 5.624 -3.528 -4.39 -3.528z" mask="url(#z109eu7l2h)"/>
        </g>
        <g transform="translate(44 19)">
            <mask id="whslt52jrj" fill="#fff">
                <use xlink:href="#g11q08wnhi"/>
            </mask>
            <path fill="#FCE6E8" d="M-3.611 6.493L6.415 6.493 6.415 -3.509 -3.611 -3.509z" mask="url(#whslt52jrj)"/>
        </g>
        <path fill="#FCE6E8" d="M45.463 20.487l.023-.002-.023.002zM44.513 20.488l-.022-.003.022.003z"/>
        <g transform="translate(44 20)">
            <mask id="pf09p4q34l" fill="#fff">
                <use xlink:href="#bxyp1i6nmk"/>
            </mask>
            <path fill="#FCE6E8" d="M-4.228 5.507L6.204 5.507 6.204 -4.497 -4.228 -4.497z" mask="url(#pf09p4q34l)"/>
        </g>
        <g transform="translate(43 19)">
            <mask id="la2zfgzffn" fill="#fff">
                <use xlink:href="#8hphu1dkjm"/>
            </mask>
            <path fill="#FCE6E8" d="M-3.648 6.473L6.367 6.473 6.367 -3.528 -3.648 -3.528z" mask="url(#la2zfgzffn)"/>
        </g>
        <g transform="translate(44 20)">
            <mask id="hibnadts0p" fill="#fff">
                <use xlink:href="#adlj2qrvno"/>
            </mask>
            <path fill="#FCE6E8" d="M-4.298 5.503L5.753 5.503 5.753 -4.5 -4.298 -4.5z" mask="url(#hibnadts0p)"/>
        </g>
        <g transform="translate(45 19)">
            <mask id="2t84tegmdr" fill="#fff">
                <use xlink:href="#6c8ju91g1q"/>
            </mask>
            <path fill="#FCE6E8" d="M-4.456 6.48L5.554 6.48 5.554 -3.521 -4.456 -3.521z" mask="url(#2t84tegmdr)"/>
        </g>
        <g transform="translate(44 20)">
            <mask id="ranfwnqpzt" fill="#fff">
                <use xlink:href="#dnq1fv9u6s"/>
            </mask>
            <path fill="#FCE6E8" d="M-3.695 5.499L6.345 5.499 6.345 -4.504 -3.695 -4.504z" mask="url(#ranfwnqpzt)"/>
        </g>
        <g transform="translate(44 19)">
            <mask id="4gcu8kz1zv" fill="#fff">
                <use xlink:href="#xj1ktwknqu"/>
            </mask>
            <path fill="#FCE6E8" d="M-4.439 6.493L5.587 6.493 5.587 -3.509 -4.439 -3.509z" mask="url(#4gcu8kz1zv)"/>
        </g>
        <g transform="translate(44 20)">
            <mask id="4trlgnrirx" fill="#fff">
                <use xlink:href="#fbx32tcxmw"/>
            </mask>
            <path fill="#FCE6E8" d="M-4.37 5.498L5.671 5.498 5.671 -4.504 -4.37 -4.504z" mask="url(#4trlgnrirx)"/>
        </g>
        <g transform="translate(44 20)">
            <mask id="zf5l56yfaz" fill="#fff">
                <use xlink:href="#s5kn2ou9gy"/>
            </mask>
            <path fill="#FCE6E8" d="M-3.777 5.503L6.274 5.503 6.274 -4.5 -3.777 -4.5z" mask="url(#zf5l56yfaz)"/>
        </g>
        <g transform="translate(44 30)">
            <mask id="3mhivesjgB" fill="#fff">
                <use xlink:href="#aqftda61jA"/>
            </mask>
            <path fill="#FCE6E8" d="M-4.402 6.289L5.713 6.289 5.713 -3.714 -4.402 -3.714z" mask="url(#3mhivesjgB)"/>
        </g>
        <path fill="#FCE6E8" d="M44.185 31.27l-.119-.006.12.006z"/>
        <g transform="translate(44 30)">
            <mask id="ks89h8kblD" fill="#fff">
                <use xlink:href="#ba87761qfC"/>
            </mask>
            <path fill="#FCE6E8" d="M-3.738 6.289L6.378 6.289 6.378 -3.714 -3.738 -3.714z" mask="url(#ks89h8kblD)"/>
        </g>
        <g transform="translate(44 30)">
            <mask id="d7n2kboufF" fill="#fff">
                <use xlink:href="#9wwzf2ss4E"/>
            </mask>
            <path fill="#FCE6E8" d="M-3.595 6.286L6.501 6.286 6.501 -3.717 -3.595 -3.717z" mask="url(#d7n2kboufF)"/>
        </g>
        <g transform="translate(44 30)">
            <mask id="mqukl4hfmH" fill="#fff">
                <use xlink:href="#qri7po39dG"/>
            </mask>
            <path fill="#FCE6E8" d="M-4.255 6.29L5.832 6.29 5.832 -3.711 -4.255 -3.711z" mask="url(#mqukl4hfmH)"/>
        </g>
        <g transform="translate(44 30)">
            <mask id="o2sxgo1l5J" fill="#fff">
                <use xlink:href="#4wk8j7j7sI"/>
            </mask>
            <path fill="#FCE6E8" d="M-3.856 6.29L6.231 6.29 6.231 -3.711 -3.856 -3.711z" mask="url(#o2sxgo1l5J)"/>
        </g>
        <g transform="translate(45 30)">
            <mask id="h0ng5k1j6L" fill="#fff">
                <use xlink:href="#sw0qhbhhfK"/>
            </mask>
            <path fill="#FCE6E8" d="M-4.469 6.282L5.775 6.282 5.775 -3.729 -4.469 -3.729z" mask="url(#h0ng5k1j6L)"/>
        </g>
        <g transform="translate(44 30)">
            <mask id="9hbqen6qoN" fill="#fff">
                <use xlink:href="#d6vk4fo7pM"/>
            </mask>
            <path fill="#FCE6E8" d="M-4.525 6.286L5.571 6.286 5.571 -3.717 -4.525 -3.717z" mask="url(#9hbqen6qoN)"/>
        </g>
        <g transform="translate(43 30)">
            <mask id="jnci0qml0P" fill="#fff">
                <use xlink:href="#kk7ywuj92O"/>
            </mask>
            <path fill="#FCE6E8" d="M-3.799 6.281L6.445 6.281 6.445 -3.729 -3.799 -3.729z" mask="url(#jnci0qml0P)"/>
        </g>
        <g transform="translate(30 1)">
            <mask id="9sneopl6tR" fill="#fff">
                <use xlink:href="#s2mu8vny4Q"/>
            </mask>
            <path fill="#FFF" d="M-4.772 35.262L34.748 35.262 34.748 -4.229 -4.772 -4.229z" mask="url(#9sneopl6tR)"/>
        </g>
        <path fill="#FCE6E8" d="M45.79 31.27l.12-.006-.12.006z"/>
        <g transform="translate(37 9)">
            <mask id="ld8vh72mbT" fill="#fff">
                <use xlink:href="#xqmucnpz3S"/>
            </mask>
            <path fill="#E6001A" d="M-4.749 27.292L20.727 27.292 20.727 -4.678 -4.749 -4.678z" mask="url(#ld8vh72mbT)"/>
        </g>
        <g transform="translate(0 65)">
            <mask id="kjcl0tbwhV" fill="#fff">
                <use xlink:href="#hlnv8wgkvU"/>
            </mask>
            <path fill="#050D2E" d="M-5 30.708L94.976 30.708 94.976 -4.188 -5 -4.188z" mask="url(#kjcl0tbwhV)"/>
        </g>
        <g transform="translate(69 72)">
            <mask id="bc7q6xnq8X" fill="#fff">
                <use xlink:href="#phmrst1hsW"/>
            </mask>
            <path fill="#FFF" d="M-4.513 17.236L16.362 17.236 16.362 -4.714 -4.513 -4.714z" mask="url(#bc7q6xnq8X)"/>
        </g>
        <g transform="translate(10 74)">
            <mask id="nyug9ye6aZ" fill="#fff">
                <use xlink:href="#v01vlyq5zY"/>
            </mask>
            <path fill="#050D2E" d="M-4.436 13.333L13.71 13.333 13.71 -4.812 -4.436 -4.812z" mask="url(#nyug9ye6aZ)"/>
        </g>
        <g transform="translate(23 74)">
            <mask id="bdbmqpljeab" fill="#fff">
                <use xlink:href="#wk9ugj34waa"/>
            </mask>
            <path fill="#050D2E" d="M-4.623 13.333L13.522 13.333 13.522 -4.812 -4.623 -4.812z" mask="url(#bdbmqpljeab)"/>
        </g>
        <g transform="translate(36 74)">
            <mask id="3b96kl2jead" fill="#fff">
                <use xlink:href="#0h587adb2ac"/>
            </mask>
            <path fill="#050D2E" d="M-4.811 13.333L13.334 13.333 13.334 -4.812 -4.811 -4.812z" mask="url(#3b96kl2jead)"/>
        </g>
        <g transform="translate(49 74)">
            <mask id="nwiqx3d9eaf" fill="#fff">
                <use xlink:href="#wblknk9zdae"/>
            </mask>
            <path fill="#050D2E" d="M-4.998 13.333L13.147 13.333 13.147 -4.812 -4.998 -4.812z" mask="url(#nwiqx3d9eaf)"/>
        </g>
        <g transform="translate(16)">
            <mask id="cgfmxf3cxah" fill="#fff">
                <use xlink:href="#rhbk13lp7ag"/>
            </mask>
            <path fill="#050D2E" d="M-4.502 66.628L62.478 66.628 62.478 -5 -4.502 -5z" mask="url(#cgfmxf3cxah)"/>
        </g>
        <g transform="translate(25 46)">
            <mask id="tyiez8huyaj" fill="#fff">
                <use xlink:href="#zps5xzsyiai"/>
            </mask>
            <path fill="#050D2E" d="M-4.698 9.453L8.845 9.453 8.845 -4.092 -4.698 -4.092z" mask="url(#tyiez8huyaj)"/>
        </g>
    </g>
</svg>
